<?xml version="1.0" encoding="UTF-8" standalone="no"?>
<!-- Created with Inkscape (http://www.inkscape.org/) -->

<svg
   width="11in"
   height="8.5in"
   viewBox="0 0 1056 816"
   version="1.1"
   id="svg5"
   inkscape:version="1.2.2 (b0a8486541, 2022-12-01)"
   sodipodi:docname="logo-horizontal.svg"
   xmlns:inkscape="http://www.inkscape.org/namespaces/inkscape"
   xmlns:sodipodi="http://sodipodi.sourceforge.net/DTD/sodipodi-0.dtd"
   xmlns="http://www.w3.org/2000/svg"
   xmlns:svg="http://www.w3.org/2000/svg">
  <sodipodi:namedview
     id="namedview7"
     pagecolor="#ffffff"
     bordercolor="#000000"
     borderopacity="0.25"
     inkscape:showpageshadow="2"
     inkscape:pageopacity="0.0"
     inkscape:pagecheckerboard="0"
     inkscape:deskcolor="#d1d1d1"
     inkscape:document-units="in"
     showgrid="false"
     inkscape:zoom="0.68024365"
     inkscape:cx="288.86708"
     inkscape:cy="351.3447"
     inkscape:window-width="1920"
     inkscape:window-height="958"
     inkscape:window-x="0"
     inkscape:window-y="0"
     inkscape:window-maximized="1"
     inkscape:current-layer="layer1" />
  <defs
     id="defs2">
    <clipPath
       clipPathUnits="userSpaceOnUse"
       id="clipPath674">
      <g
         id="g678">
        <g
           inkscape:label="Clip"
           id="use676"
           style="display:none"
           clip-path="url(#clipPath674)">
          <path
             style="font-style:normal;font-variant:normal;font-weight:bold;font-stretch:normal;font-size:124px;font-family:'Stack Sans Text';-inkscape-font-specification:'Stack Sans Text, Bold';font-variant-ligatures:normal;font-variant-caps:normal;font-variant-numeric:normal;font-variant-east-asian:normal;display:inline;fill:#ff0000"
             d="m 363.92773,233 c -13.86616,20.77442 -21.76519,33.38339 -35.63156,54.15833 -0.85947,1.39692 -3.3509,5.68571 -4.67459,8.52628 -2.33205,4.94182 -4.04824,10.35618 -3.67236,15.8818 0.35559,5.62332 2.95597,11.1219 7.31689,14.73744 5.12342,4.34328 11.90878,6.16895 18.50809,6.50675 11.28279,0.63101 22.64593,-2.35334 32.38556,-8.02461 12.06275,-6.99187 21.95333,-17.97717 26.89935,-31.07935 1.98899,-5.33849 3.30317,-11.15847 2.24119,-16.84996 -0.73009,-4.25925 -3.12327,-8.18032 -6.57147,-10.78338 -4.46784,-3.51469 -10.20289,-4.86023 -15.76868,-5.27302 -2.68661,-0.19532 -5.39306,-0.24417 -8.07734,0.0122 0.38824,-0.39814 0.51348,-1.29065 1.22657,-1.07812 12.21679,0 24.43359,-10e-6 36.65039,0 4.47478,-9.20825 8.95009,-18.41624 13.42382,-27.625 h -63.66211 c -0.19791,0.29687 -0.39583,0.59375 -0.59375,0.89062 z"
             id="path680"
             sodipodi:nodetypes="scccccccccccccccss"
             inkscape:label="text113" />
        </g>
      </g>
    </clipPath>
  </defs>
  <g
     inkscape:label="Layer 1"
     inkscape:groupmode="layer"
     id="layer1">
    <g
       id="g4743">
      <path
         id="rect325-8"
         style="fill:#ff6a3d;stroke-width:0.654504;fill-opacity:1"
         d="m 53.064839,119.28438 c -1.3296,0 -3.070106,0.83416 -3.902345,1.87108 l -1.802731,2.2461 c -0.832236,1.03692 -0.431155,1.87109 0.898435,1.87109 h 80.667972 c -0.24016,-0.18753 -0.48141,-0.37437 -0.71484,-0.57227 -1.82904,-1.5164 -3.34367,-3.36683 -4.51759,-5.416 z"
         sodipodi:nodetypes="sssscccs" />
      <path
         id="rect325-8-6"
         style="fill:#4455ae;stroke-width:0.654504;fill-opacity:1"
         d="m 63.721085,107.02656 c -1.3296,0 -3.070096,0.83417 -3.902335,1.87109 l -1.802741,2.2461 c -0.832241,1.03692 -0.431156,1.87304 0.898444,1.87304 h 62.398427 c -0.21138,-1.00699 -0.35308,-2.02871 -0.41796,-3.05469 -0.0669,-0.98343 -0.0456,-1.96119 0.0117,-2.93554 z"
         sodipodi:nodetypes="sssscccs" />
      <path
         id="rect325-8-6-2"
         style="fill:#0c80ac;stroke-width:0.654504;fill-opacity:1"
         d="m 75.146871,95.932808 c -1.3296,0 -3.070099,0.834174 -3.902341,1.871096 L 69.441795,100.05 c -0.832241,1.03692 -0.433117,1.87304 0.896483,1.87304 h 51.351562 c 0.50939,-2.045865 1.21661,-4.050071 2.04492,-5.990232 z"
         sodipodi:nodetypes="ssssccs" />
      <text
         xml:space="preserve"
         style="font-style:normal;font-variant:normal;font-weight:bold;font-stretch:normal;font-size:124px;font-family:'Stack Sans Text';-inkscape-font-specification:'Stack Sans Text, Bold';font-variant-ligatures:normal;font-variant-caps:normal;font-variant-numeric:normal;font-variant-east-asian:normal;display:inline;fill:#008980;fill-opacity:1"
         x="171.24709"
         y="123.51057"
         id="text113-1"
         transform="skewX(-25.918682)"><tspan
           sodipodi:role="line"
           id="tspan111-0"
           x="171.24709"
           y="123.51057">5</tspan></text>
      <text
         xml:space="preserve"
         style="font-style:normal;font-variant:normal;font-weight:bold;font-stretch:normal;font-size:72.4501px;font-family:'Stack Sans Text';-inkscape-font-specification:'Stack Sans Text, Bold';font-variant-ligatures:normal;font-variant-caps:normal;font-variant-numeric:normal;font-variant-east-asian:normal;fill:#008980;stroke-width:1.13203;fill-opacity:1"
         x="290.88196"
         y="110.76796"
         id="text1006"
         transform="matrix(0.88818963,0,-0.57096678,1.1258857,0,0)"><tspan
           sodipodi:role="line"
           id="tspan1004"
           x="290.88196"
           y="110.76796"
           style="font-style:normal;font-variant:normal;font-weight:bold;font-stretch:normal;font-size:72.4501px;font-family:'Stack Sans Text';-inkscape-font-specification:'Stack Sans Text, Bold';font-variant-ligatures:normal;font-variant-caps:normal;font-variant-numeric:normal;font-variant-east-asian:normal;fill:#008980;stroke-width:1.13203;fill-opacity:1">YEARS FORWARD</tspan></text>
    </g>
    <g
       id="g4756">
      <path
         id="rect325-8-3"
         style="fill:#ff6a3d;stroke-width:0.654504;fill-opacity:1"
         d="m 118.18842,278.37576 c -1.3296,0 -3.07011,0.83415 -3.90235,1.87108 l -1.80273,2.2461 c -0.83223,1.03692 -0.43115,1.87109 0.89844,1.87109 h 80.66797 c -0.24016,-0.18753 -0.48141,-0.37437 -0.71484,-0.57227 -1.82904,-1.5164 -3.34367,-3.36683 -4.51759,-5.416 z"
         sodipodi:nodetypes="sssscccs" />
      <path
         id="rect325-8-6-5"
         style="fill:#4455ae;stroke-width:0.654504;fill-opacity:1"
         d="m 128.84467,266.11794 c -1.3296,0 -3.0701,0.83417 -3.90234,1.87109 l -1.80274,2.2461 c -0.83224,1.03692 -0.43116,1.87304 0.89844,1.87304 h 62.39843 c -0.21138,-1.00699 -0.35308,-2.02871 -0.41796,-3.05469 -0.0669,-0.98343 -0.0456,-1.96119 0.0117,-2.93554 z"
         sodipodi:nodetypes="sssscccs" />
      <path
         id="rect325-8-6-2-6"
         style="fill:#0c80ac;stroke-width:0.654504;fill-opacity:1"
         d="m 140.27045,255.02419 c -1.3296,0 -3.0701,0.83417 -3.90234,1.87109 l -1.80273,2.2461 c -0.83224,1.03693 -0.43312,1.87304 0.89648,1.87304 h 51.35156 c 0.50939,-2.04587 1.21661,-4.05007 2.04492,-5.99023 z"
         sodipodi:nodetypes="ssssccs" />
      <text
         xml:space="preserve"
         style="font-style:normal;font-variant:normal;font-weight:bold;font-stretch:normal;font-size:124px;font-family:'Stack Sans Text';-inkscape-font-specification:'Stack Sans Text, Bold';font-variant-ligatures:normal;font-variant-caps:normal;font-variant-numeric:normal;font-variant-east-asian:normal;display:inline;fill:#008980;fill-opacity:1"
         x="313.68539"
         y="282.60193"
         id="text113-1-2"
         transform="skewX(-25.918682)"><tspan
           sodipodi:role="line"
           id="tspan111-0-9"
           x="313.68539"
           y="282.60193">5</tspan></text>
      <text
         xml:space="preserve"
         style="font-style:normal;font-variant:normal;font-weight:bold;font-stretch:normal;font-size:54.9837px;font-family:'Stack Sans Text';-inkscape-font-specification:'Stack Sans Text, Bold';font-variant-ligatures:normal;font-variant-caps:normal;font-variant-numeric:normal;font-variant-east-asian:normal;fill:#008980;stroke-width:0.859119;fill-opacity:1"
         x="435.91132"
         y="222.65375"
         id="text1006-1"
         transform="matrix(0.94009834,0,-0.60433594,1.0637185,0,0)"><tspan
           sodipodi:role="line"
           id="tspan1004-2"
           x="435.91132"
           y="222.65375"
           style="font-style:normal;font-variant:normal;font-weight:bold;font-stretch:normal;font-size:54.9837px;font-family:'Stack Sans Text';-inkscape-font-specification:'Stack Sans Text, Bold';font-variant-ligatures:normal;font-variant-caps:normal;font-variant-numeric:normal;font-variant-east-asian:normal;fill:#008980;stroke-width:0.859119;fill-opacity:1">YEARS</tspan><tspan
           sodipodi:role="line"
           x="435.91132"
           y="291.38336"
           style="font-style:normal;font-variant:normal;font-weight:bold;font-stretch:normal;font-size:54.9837px;font-family:'Stack Sans Text';-inkscape-font-specification:'Stack Sans Text, Bold';font-variant-ligatures:normal;font-variant-caps:normal;font-variant-numeric:normal;font-variant-east-asian:normal;fill:#008980;stroke-width:0.859119;fill-opacity:1"
           id="tspan342" /></text>
      <text
         xml:space="preserve"
         style="font-style:normal;font-variant:normal;font-weight:bold;font-stretch:normal;font-size:54.9837px;font-family:'Stack Sans Text';-inkscape-font-specification:'Stack Sans Text, Bold';font-variant-ligatures:normal;font-variant-caps:normal;font-variant-numeric:normal;font-variant-east-asian:normal;fill:#008980;stroke-width:0.859119;fill-opacity:1"
         x="450.46359"
         y="268.9248"
         id="text1006-1-6"
         transform="matrix(0.94009834,0,-0.60433594,1.0637185,0,0)"><tspan
           sodipodi:role="line"
           id="tspan1004-2-0"
           x="450.46359"
           y="268.9248"
           style="font-style:normal;font-variant:normal;font-weight:bold;font-stretch:normal;font-size:54.9837px;font-family:'Stack Sans Text';-inkscape-font-specification:'Stack Sans Text, Bold';font-variant-ligatures:normal;font-variant-caps:normal;font-variant-numeric:normal;font-variant-east-asian:normal;fill:#008980;stroke-width:0.859119;fill-opacity:1">FORWARD</tspan><tspan
           sodipodi:role="line"
           x="450.46359"
           y="337.65442"
           style="font-style:normal;font-variant:normal;font-weight:bold;font-stretch:normal;font-size:54.9837px;font-family:'Stack Sans Text';-inkscape-font-specification:'Stack Sans Text, Bold';font-variant-ligatures:normal;font-variant-caps:normal;font-variant-numeric:normal;font-variant-east-asian:normal;fill:#008980;stroke-width:0.859119;fill-opacity:1"
           id="tspan342-6" /></text>
    </g>
    <text
       xml:space="preserve"
       style="font-style:normal;font-variant:normal;font-weight:bold;font-stretch:normal;font-size:124px;font-family:'Stack Sans Text';-inkscape-font-specification:'Stack Sans Text, Bold';font-variant-ligatures:normal;font-variant-caps:normal;font-variant-numeric:normal;font-variant-east-asian:normal;fill:#ff0000"
       x="467.78287"
       y="229.10207"
       id="text1010"><tspan
         sodipodi:role="line"
         id="tspan1008"
         x="467.78287"
         y="229.10207" /></text>
    <text
       xml:space="preserve"
       style="font-weight:bold;font-size:48px;font-family:FreeMono;-inkscape-font-specification:'FreeMono, Bold';fill:#000000"
       x="358.57547"
       y="332.28775"
       id="text346"><tspan
         sodipodi:role="line"
         id="tspan344"></tspan></text>
    <text
       xml:space="preserve"
       style="font-style:normal;font-variant:normal;font-weight:bold;font-stretch:normal;font-size:35.8523px;font-family:'Space Mono';-inkscape-font-specification:'Space Mono, Bold';font-variant-ligatures:normal;font-variant-caps:normal;font-variant-numeric:normal;font-variant-east-asian:normal;fill:#ff6a3d;fill-opacity:1;stroke-width:0.746923"
       x="187.26097"
       y="342.479"
       id="text419"><tspan
         sodipodi:role="line"
         id="tspan417"
         x="187.26097"
         y="342.479"
         style="font-style:normal;font-variant:normal;font-weight:bold;font-stretch:normal;font-size:35.8523px;font-family:'Space Mono';-inkscape-font-specification:'Space Mono, Bold';font-variant-ligatures:normal;font-variant-caps:normal;font-variant-numeric:normal;font-variant-east-asian:normal;fill:#4455ae;fill-opacity:1;stroke-width:0.746923">Data Day 2027</tspan></text>
    <path
       id="rect566"
       style="stroke-width:0.999996;fill:#008980;fill-opacity:1"
       d="m 172.35842,398.66268 h 295.37612 c 1.38955,0 1.80391,0.8691 0.92903,1.94867 l -1.52959,1.88744 c -0.87487,1.07956 -2.69786,1.94866 -4.08741,1.94866 H 167.67045 c -1.38956,0 -1.8039,-0.8691 -0.92903,-1.94866 l 1.52959,-1.88744 c 0.87488,-1.07957 2.69785,-1.94867 4.08741,-1.94867 z"
       sodipodi:nodetypes="sssssssss" />
    <g
       id="g4761">
      <path
         id="rect566-6"
         style="stroke-width:0.999996;fill:#008980;fill-opacity:1"
         d="m 171.93402,423.50583 h 171.37612 c 1.38955,0 1.80392,0.8691 0.92903,1.94867 l -1.52959,1.88744 c -0.87488,1.07955 -2.69786,1.94866 -4.08741,1.94866 H 167.24605 c -1.38956,0 -1.8039,-0.8691 -0.92903,-1.94866 l 1.52959,-1.88744 c 0.87488,-1.07957 2.69785,-1.94867 4.08741,-1.94867 z"
         sodipodi:nodetypes="sssssssss" />
      <path
         id="rect566-6-6"
         style="stroke-width:0.999996;fill:#4455ae;fill-opacity:1"
         d="m 355.7054,423.54172 h 75.37612 c 1.38955,0 1.80392,0.8691 0.92903,1.94867 l -1.52959,1.88744 c -0.87488,1.07955 -2.69786,1.94866 -4.08741,1.94866 h -75.37612 c -1.38956,0 -1.8039,-0.8691 -0.92903,-1.94866 l 1.52959,-1.88744 c 0.87488,-1.07957 2.69785,-1.94867 4.08741,-1.94867 z"
         sodipodi:nodetypes="sssssssss" />
      <path
         id="rect566-6-6-4"
         style="stroke-width:0.999996;fill:#ff6a3d;fill-opacity:1"
         d="m 442.99219,423.53569 h 21.37612 c 1.38955,0 1.80392,0.8691 0.92903,1.94867 l -1.52959,1.88744 c -0.87488,1.07955 -2.69786,1.94866 -4.08741,1.94866 h -21.37612 c -1.38956,0 -1.8039,-0.8691 -0.92903,-1.94866 l 1.52959,-1.88744 c 0.87488,-1.07957 2.69785,-1.94867 4.08741,-1.94867 z"
         sodipodi:nodetypes="sssssssss"
         inkscape:transform-center-x="71.580693"
         inkscape:transform-center-y="0.4446258" />
    </g>
  </g>
</svg>
