<?xml version="1.0" encoding="UTF-8" standalone="no"?>
<!-- Created with Inkscape (http://www.inkscape.org/) -->

<svg
   width="11in"
   height="8.5in"
   viewBox="0 0 1056 816"
   version="1.1"
   id="svg5"
   sodipodi:docname="drawing.svg"
   inkscape:version="1.2.2 (b0a8486541, 2022-12-01)"
   xmlns:inkscape="http://www.inkscape.org/namespaces/inkscape"
   xmlns:sodipodi="http://sodipodi.sourceforge.net/DTD/sodipodi-0.dtd"
   xmlns="http://www.w3.org/2000/svg"
   xmlns:svg="http://www.w3.org/2000/svg">
  <sodipodi:namedview
     id="namedview7"
     pagecolor="#ffffff"
     bordercolor="#000000"
     borderopacity="0.25"
     inkscape:showpageshadow="2"
     inkscape:pageopacity="0.0"
     inkscape:pagecheckerboard="0"
     inkscape:deskcolor="#d1d1d1"
     inkscape:document-units="in"
     showgrid="false"
     inkscape:zoom="1"
     inkscape:cx="239.5"
     inkscape:cy="414"
     inkscape:window-width="1920"
     inkscape:window-height="958"
     inkscape:window-x="0"
     inkscape:window-y="0"
     inkscape:window-maximized="1"
     inkscape:current-layer="layer1" />
  <defs
     id="defs2" />
  <g
     inkscape:label="Layer 1"
     inkscape:groupmode="layer"
     id="layer1">
    <rect
       style="fill:#221c2b;fill-opacity:1;stroke:#000000;stroke-width:0;stroke-linecap:round;stroke-dasharray:none;stroke-opacity:1"
       id="rect1771"
       width="603.17249"
       height="562.63135"
       x="146.97409"
       y="83.806366"
       rx="1.1845406" />
    <path
       style="color:#000000;fill:#f5f0f7;stroke-linecap:round;-inkscape-stroke:none"
       d="m 504.25195,414.45117 c -7.11363,0 -12.96093,5.84731 -12.96093,12.96094 0,7.11363 5.8473,12.96094 12.96093,12.96094 7.11364,0 12.96094,-5.84731 12.96094,-12.96094 0,-7.11363 -5.8473,-12.96094 -12.96094,-12.96094 z m 0,7.42578 c 3.10101,0 5.53516,2.43416 5.53516,5.53516 0,3.101 -2.43415,5.53516 -5.53516,5.53516 -3.101,0 -5.53515,-2.43416 -5.53515,-5.53516 0,-3.101 2.43415,-5.53516 5.53515,-5.53516 z"
       id="path989-6-2-7" />
    <path
       style="color:#000000;fill:#f5f0f7;stroke-linecap:round;-inkscape-stroke:none"
       d="m 516.61914,283.62891 c -7.11363,0 -12.96094,5.8473 -12.96094,12.96093 0,7.11364 5.84731,12.96094 12.96094,12.96094 7.11363,0 12.96094,-5.8473 12.96094,-12.96094 0,-7.11363 -5.84731,-12.96093 -12.96094,-12.96093 z m 0,7.42578 c 3.101,0 5.53516,2.43415 5.53516,5.53515 0,3.10101 -2.43416,5.53516 -5.53516,5.53516 -3.101,0 -5.53516,-2.43415 -5.53516,-5.53516 0,-3.101 2.43416,-5.53515 5.53516,-5.53515 z"
       id="path989-6-2-9" />
    <path
       id="path7695"
       style="color:#000000;fill:#f5f0f7;stroke-linecap:round;-inkscape-stroke:none"
       d="m 211.37695,115.92383 a 7.1999998,7.1999998 0 0 0 -7.19922,7.19922 v 467.52539 a 7.1999998,7.1999998 0 0 0 7.19922,7.19922 7.1999998,7.1999998 0 0 0 7.20117,-7.19922 V 123.12305 a 7.1999998,7.1999998 0 0 0 -7.20117,-7.19922 z m 2.8e-4,7.19974 v 467.5249 m -37.38504,-38.74222 a 7.1999998,7.1999998 0 0 0 -7.20117,7.20117 7.1999998,7.1999998 0 0 0 7.20117,7.19922 h 467.52539 a 7.1999998,7.1999998 0 0 0 7.19922,-7.19922 7.1999998,7.1999998 0 0 0 -7.19922,-7.20117 z m -2.8e-4,7.2004 H 641.5168" />
    <path
       style="color:#000000;fill:#f5f0f7;stroke-linecap:round;-inkscape-stroke:none"
       d="m 248.69141,485.05664 c -7.11364,0 -12.95899,5.84731 -12.95899,12.96094 0,7.11363 5.84535,12.95898 12.95899,12.95898 7.11363,0 12.96093,-5.84535 12.96093,-12.95898 0,-7.11363 -5.8473,-12.96094 -12.96093,-12.96094 z m 0,7.42383 c 3.101,0 5.53515,2.4361 5.53515,5.53711 0,3.101 -2.43415,5.53515 -5.53515,5.53515 -3.10101,0 -5.53516,-2.43415 -5.53516,-5.53515 0,-3.10101 2.43415,-5.53711 5.53516,-5.53711 z"
       id="path989-6-2" />
    <path
       style="color:#000000;fill:#f5f0f7;stroke-linecap:round;-inkscape-stroke:none"
       d="m 348.375,492.57031 c -7.11363,0 -12.96094,5.84731 -12.96094,12.96094 0,7.11363 5.84731,12.96094 12.96094,12.96094 7.11363,0 12.96094,-5.84731 12.96094,-12.96094 0,-7.11363 -5.84731,-12.96094 -12.96094,-12.96094 z m 0,7.42578 c 3.101,0 5.53516,2.43416 5.53516,5.53516 0,3.101 -2.43416,5.53516 -5.53516,5.53516 -3.101,0 -5.53516,-2.43416 -5.53516,-5.53516 0,-3.101 2.43416,-5.53516 5.53516,-5.53516 z"
       id="path989-6-2-6" />
    <path
       style="color:#000000;fill:#f5f0f7;stroke-linecap:round;-inkscape-stroke:none"
       d="m 407.53125,393.81055 c -7.11363,0 -12.96094,5.8473 -12.96094,12.96093 0,7.11364 5.84731,12.96094 12.96094,12.96094 7.11363,0 12.96094,-5.8473 12.96094,-12.96094 0,-7.11363 -5.84731,-12.96093 -12.96094,-12.96093 z m 0,7.42578 c 3.101,0 5.53516,2.43415 5.53516,5.53515 0,3.10101 -2.43416,5.53516 -5.53516,5.53516 -3.101,0 -5.53516,-2.43415 -5.53516,-5.53516 0,-3.101 2.43416,-5.53515 5.53516,-5.53515 z"
       id="path989-6-2-1" />
    <path
       id="path6779"
       style="display:inline;color:#000000;fill:#cb4fc0;fill-opacity:1;stroke-linecap:round;stroke-linejoin:round;-inkscape-stroke:none;paint-order:fill markers stroke"
       d="m 576.82651,204.18714 a 3.6003599,3.6003599 0 0 0 -1.72852,1.125 l -25.43554,29.99804 a 3.6003599,3.6003599 0 0 0 1.71289,5.7754 l 7.84375,2.35156 c -39.54836,120.64874 -114.50112,181.6552 -180.50781,213.09179 -50.13456,23.87728 -94.64677,30.41313 -114.42774,32.2129 1.9793,2.27826 3.18555,5.24337 3.18555,8.4707 0,2.07141 -0.49846,4.03402 -1.37695,5.77734 21.2608,-1.9973 67.32974,-8.94249 118.81054,-33.46094 68.81529,-32.77422 147.33271,-97.33649 188.10938,-221.95898 l 8.18164,2.45313 a 3.6003599,3.6003599 0 0 0 4.61133,-3.85157 l -4.38477,-38.93359 a 3.6003599,3.6003599 0 0 0 -2.5293,-3.04102 3.6003599,3.6003599 0 0 0 -2.06445,-0.01 z"
       transform="translate(0.13638047,-0.05627852)" />
  </g>
</svg>
