<?xml version="1.0" encoding="UTF-8"?>
<svg id="Layer_2" data-name="Layer 2" xmlns="http://www.w3.org/2000/svg" viewBox="0 0 627.45 416.67">
  <defs>
    <style>
      .cls-1 {
        fill: #0977bc;
      }

      .cls-2 {
        fill: #073451;
      }

      .cls-3 {
        fill: #7cb46a;
      }

      .cls-4 {
        fill: #00a79d;
      }
    </style>
  </defs>
  <g id="Layer_1-2" data-name="Layer 1">
    <g id="Primary_Logo_Horizontal_w_o_Tagline" data-name="Primary Logo Horizontal w/o Tagline">
      <g id="Primary_Logo_w_o_Tagline" data-name="Primary Logo w/o Tagline">
        <g>
          <path class="cls-2" d="M0,310.94c1.45-.19,3.29-.41,5.51-.65,2.22-.24,4.64-.46,7.25-.65,2.61-.19,5.29-.36,8.05-.51,2.76-.14,5.44-.22,8.05-.22,18.28,0,32.15,4.57,41.63,13.71,9.47,9.14,14.21,22.75,14.21,40.83s-4.84,31.84-14.5,40.39c-9.67,8.56-23.98,12.84-42.93,12.84-4.84,0-9.5-.22-14-.65-4.5-.44-8.92-.94-13.27-1.52v-103.56ZM25.67,393.9c.68.1,1.45.15,2.32.15h2.76c3.77,0,7.33-.46,10.66-1.38,3.34-.92,6.21-2.54,8.63-4.86,2.42-2.32,4.33-5.46,5.73-9.43,1.4-3.96,2.1-9.04,2.1-15.23s-.72-11.17-2.17-15.23c-1.45-4.06-3.36-7.28-5.73-9.65-2.37-2.37-5.15-4.06-8.34-5.08-3.19-1.02-6.53-1.52-10.01-1.52-1.94,0-3.34.03-4.21.07-.87.05-1.45.07-1.74.07v62.08Z"/>
          <path class="cls-2" d="M120.97,310.79c2.51-.29,4.86-.53,7.03-.72,2.18-.19,4.37-.29,6.6-.29,1.84,0,3.84.1,6.02.29,2.18.19,4.66.43,7.47.72l32.05,103.7c-5.51.87-10.35,1.31-14.5,1.31-1.94,0-3.87-.1-5.8-.29-1.94-.19-4.01-.49-6.24-.87l-5.51-20.16c-2.71.78-5.29,1.36-7.76,1.74-2.47.39-4.91.58-7.33.58-2.22,0-4.5-.17-6.82-.51-2.32-.34-4.74-.85-7.25-1.52l-5.37,19.87c-2.22.38-4.26.68-6.09.87-1.84.19-3.62.29-5.37.29s-3.75-.12-6.02-.36c-2.27-.24-4.81-.6-7.62-1.09l32.49-103.56ZM133.88,338.06l-9.72,37.28c1.64.49,3.19.87,4.64,1.16,1.45.29,2.95.43,4.5.43,1.64,0,3.26-.12,4.86-.36,1.59-.24,3.26-.6,5-1.09l-9.28-37.42Z"/>
          <path class="cls-2" d="M195.52,333.27h-24.22c-.87-4.16-1.3-7.98-1.3-11.46,0-3.19.44-6.91,1.3-11.17h74.12c.38,2.13.67,4.11.87,5.95.19,1.84.29,3.58.29,5.22,0,3.19-.39,7.01-1.16,11.46h-24.22v81.22c-5.13.87-9.38,1.31-12.76,1.31-3.58,0-7.88-.43-12.91-1.31v-81.22Z"/>
          <path class="cls-2" d="M268.91,310.79c2.51-.29,4.86-.53,7.04-.72,2.17-.19,4.37-.29,6.6-.29,1.84,0,3.84.1,6.02.29,2.17.19,4.66.43,7.47.72l32.05,103.7c-5.51.87-10.35,1.31-14.5,1.31-1.94,0-3.87-.1-5.8-.29-1.94-.19-4.01-.49-6.24-.87l-5.51-20.16c-2.71.78-5.29,1.36-7.76,1.74-2.47.39-4.91.58-7.32.58-2.23,0-4.5-.17-6.82-.51-2.32-.34-4.74-.85-7.25-1.52l-5.37,19.87c-2.23.38-4.26.68-6.09.87-1.84.19-3.63.29-5.37.29s-3.75-.12-6.02-.36c-2.27-.24-4.81-.6-7.61-1.09l32.49-103.56ZM281.82,338.06l-9.72,37.28c1.64.49,3.19.87,4.64,1.16,1.45.29,2.95.43,4.5.43,1.64,0,3.26-.12,4.86-.36,1.6-.24,3.26-.6,5-1.09l-9.28-37.42Z"/>
          <path class="cls-2" d="M369.42,310.94c1.45-.19,3.29-.41,5.51-.65,2.22-.24,4.64-.46,7.25-.65,2.61-.19,5.29-.36,8.05-.51,2.76-.14,5.44-.22,8.05-.22,18.28,0,32.15,4.57,41.63,13.71,9.47,9.14,14.21,22.75,14.21,40.83s-4.84,31.84-14.5,40.39c-9.67,8.56-23.98,12.84-42.93,12.84-4.84,0-9.5-.22-14-.65-4.5-.44-8.92-.94-13.27-1.52v-103.56ZM395.09,393.9c.68.1,1.45.15,2.32.15h2.76c3.77,0,7.33-.46,10.66-1.38,3.34-.92,6.21-2.54,8.63-4.86,2.42-2.32,4.33-5.46,5.73-9.43,1.4-3.96,2.1-9.04,2.1-15.23s-.72-11.17-2.18-15.23c-1.45-4.06-3.36-7.28-5.73-9.65-2.37-2.37-5.15-4.06-8.34-5.08-3.19-1.02-6.53-1.52-10.01-1.52-1.94,0-3.34.03-4.21.07-.87.05-1.45.07-1.74.07v62.08Z"/>
          <path class="cls-2" d="M490.38,310.79c2.51-.29,4.86-.53,7.04-.72,2.18-.19,4.37-.29,6.6-.29,1.84,0,3.84.1,6.02.29,2.17.19,4.66.43,7.47.72l32.05,103.7c-5.51.87-10.35,1.31-14.5,1.31-1.94,0-3.87-.1-5.8-.29-1.94-.19-4.01-.49-6.24-.87l-5.51-20.16c-2.71.78-5.29,1.36-7.76,1.74-2.46.39-4.91.58-7.32.58-2.23,0-4.5-.17-6.82-.51-2.32-.34-4.74-.85-7.25-1.52l-5.37,19.87c-2.23.38-4.26.68-6.09.87-1.84.19-3.63.29-5.37.29s-3.75-.12-6.02-.36c-2.27-.24-4.81-.6-7.61-1.09l32.49-103.56ZM503.29,338.06l-9.72,37.28c1.64.49,3.19.87,4.64,1.16s2.95.43,4.5.43c1.64,0,3.26-.12,4.86-.36,1.6-.24,3.26-.6,5-1.09l-9.28-37.42Z"/>
          <path class="cls-2" d="M569.43,377.51c-2.52-5.22-5.15-10.66-7.91-16.32-2.76-5.66-5.51-11.31-8.27-16.97-2.75-5.66-5.49-11.31-8.19-16.97-2.71-5.66-5.32-11.1-7.83-16.32,1.64-.29,3.87-.56,6.67-.8,2.8-.24,5.46-.36,7.98-.36,2.03,0,4.28.12,6.74.36,2.47.24,4.62.51,6.46.8l17.84,40.32,17.12-40.32c2.22-.39,4.54-.68,6.96-.87,2.42-.19,4.88-.29,7.4-.29,1.64,0,3.77.12,6.38.36,2.61.24,4.83.51,6.67.8l-32.34,66.57v36.99c-5.13.87-9.38,1.31-12.76,1.31-3.58,0-7.88-.43-12.91-1.31v-36.99Z"/>
        </g>
        <g>
          <path class="cls-2" d="M175.91,165.19c-5.75-7.99-9.22-17.71-9.22-28.3,0-26.86,21.78-48.64,48.64-48.64s48.64,21.78,48.64,48.64c0,3.51-.41,6.91-1.11,10.21l21.61,10.82c8.92-10.68,22.17-17.62,37.17-17.62,8.32,0,16.03,2.28,22.88,5.96l27.69-31c-5.18-7.73-8.21-17.02-8.21-27.02,0-26.86,21.78-48.64,48.64-48.64,21.38,0,39.33,13.88,45.86,33.05l17.65-1.31v-27.93c0-7.32-5.62-13.4-12.92-13.98L161.78.04c-8.16-.65-15.13,5.8-15.13,13.98v176.38l-13.68,26.04,7.02-8.17,35.92-43.09Z"/>
          <path class="cls-2" d="M460.42,96.87c-4.09,22.73-23.86,40.01-47.77,40.01-8.03,0-15.5-2.13-22.17-5.58l-28,31.34c4.9,7.59,7.81,16.58,7.81,26.29,0,26.86-21.78,48.64-48.64,48.64s-48.64-21.78-48.64-48.64c0-3.13.36-6.16.92-9.13l-22.1-11.07c-8.92,10.2-21.87,16.78-36.49,16.78-7.45,0-14.43-1.81-20.74-4.8l-47.95,57.51v13c0,8.18,6.98,14.63,15.13,13.98l301.46-29.37c7.29-.58,12.92-6.66,12.92-13.98v-119.31l9.63-7.56-25.36,1.89Z"/>
          <path class="cls-3" d="M215.33,162.94c14.39,0,26.06-11.67,26.06-26.06s-11.67-26.06-26.06-26.06-26.06,11.67-26.06,26.06,11.67,26.06,26.06,26.06Z"/>
          <path class="cls-4" d="M295.59,188.93c0,14.39,11.67,26.06,26.06,26.06s26.06-11.67,26.06-26.06-11.67-26.06-26.06-26.06-26.06,11.67-26.06,26.06Z"/>
          <path class="cls-1" d="M412.65,114.3c14.39,0,26.06-11.67,26.06-26.06s-11.67-26.06-26.06-26.06-26.06,11.67-26.06,26.06,11.67,26.06,26.06,26.06Z"/>
        </g>
      </g>
    </g>
  </g>
</svg>