<?xml version="1.0" encoding="UTF-8"?>
<svg id="Layer_2" data-name="Layer 2" xmlns="http://www.w3.org/2000/svg" viewBox="0 0 692.52 175.48">
  <defs>
    <style>
      .cls-1 {
        fill: #0977bc;
      }

      .cls-2 {
        fill: #073451;
      }

      .cls-3 {
        fill: #7cb46a;
      }

      .cls-4 {
        fill: #00a79d;
      }
    </style>
  </defs>
  <g id="Layer_1-2" data-name="Layer 1">
    <g id="Primary_Logo_Horizontal_w_o_Tagline" data-name="Primary Logo Horizontal w/o Tagline">
      <g>
        <path class="cls-2" d="M277.43,51.89c.96-.13,2.17-.27,3.65-.43,1.47-.16,3.07-.3,4.8-.43,1.73-.13,3.5-.24,5.33-.34s3.6-.14,5.33-.14c12.09,0,21.27,3.02,27.54,9.07,6.27,6.04,9.4,15.05,9.4,27.01s-3.2,21.06-9.59,26.72c-6.4,5.66-15.87,8.49-28.4,8.49-3.2,0-6.28-.14-9.26-.43s-5.9-.62-8.78-1.01V51.89ZM294.41,106.78c.45.06.96.1,1.54.1h1.82c2.5,0,4.85-.3,7.05-.91,2.21-.61,4.11-1.68,5.71-3.21,1.6-1.54,2.86-3.61,3.79-6.24.93-2.62,1.39-5.98,1.39-10.08s-.48-7.39-1.44-10.08c-.96-2.69-2.22-4.81-3.79-6.38-1.57-1.57-3.41-2.69-5.52-3.36-2.11-.67-4.32-1.01-6.62-1.01-1.28,0-2.21.02-2.78.05-.58.03-.96.05-1.15.05v41.07Z"/>
        <path class="cls-2" d="M357.45,51.8c1.66-.19,3.21-.35,4.65-.48,1.44-.13,2.89-.19,4.37-.19,1.21,0,2.54.06,3.98.19,1.44.13,3.09.29,4.94.48l21.21,68.61c-3.65.58-6.85.86-9.6.86-1.28,0-2.56-.06-3.84-.19-1.28-.13-2.66-.32-4.13-.58l-3.65-13.34c-1.79.51-3.5.9-5.13,1.15-1.63.26-3.25.38-4.84.38-1.47,0-2.97-.11-4.51-.34-1.54-.22-3.14-.56-4.8-1.01l-3.55,13.14c-1.47.25-2.82.45-4.03.58-1.22.13-2.4.19-3.55.19s-2.48-.08-3.98-.24c-1.5-.16-3.18-.4-5.04-.72l21.49-68.51ZM365.99,69.84l-6.43,24.66c1.09.32,2.11.58,3.07.77.96.19,1.95.29,2.97.29,1.09,0,2.16-.08,3.21-.24,1.05-.16,2.16-.4,3.31-.72l-6.14-24.76Z"/>
        <path class="cls-2" d="M406.77,66.67h-16.02c-.58-2.75-.86-5.28-.86-7.58,0-2.11.29-4.57.86-7.39h49.03c.25,1.41.45,2.72.58,3.93.13,1.22.19,2.37.19,3.45,0,2.11-.26,4.64-.77,7.58h-16.02v53.73c-3.39.58-6.21.86-8.44.86-2.37,0-5.21-.29-8.54-.86v-53.73Z"/>
        <path class="cls-2" d="M455.32,51.8c1.66-.19,3.21-.35,4.65-.48,1.44-.13,2.89-.19,4.37-.19,1.21,0,2.54.06,3.98.19,1.44.13,3.09.29,4.94.48l21.21,68.61c-3.65.58-6.85.86-9.6.86-1.28,0-2.56-.06-3.84-.19-1.28-.13-2.66-.32-4.13-.58l-3.65-13.34c-1.79.51-3.5.9-5.13,1.15-1.63.26-3.25.38-4.84.38-1.47,0-2.97-.11-4.51-.34-1.54-.22-3.14-.56-4.8-1.01l-3.55,13.14c-1.47.25-2.82.45-4.03.58-1.22.13-2.4.19-3.55.19s-2.48-.08-3.98-.24c-1.5-.16-3.18-.4-5.04-.72l21.49-68.51ZM463.86,69.84l-6.43,24.66c1.09.32,2.11.58,3.07.77.96.19,1.95.29,2.97.29,1.09,0,2.16-.08,3.21-.24,1.05-.16,2.16-.4,3.31-.72l-6.14-24.76Z"/>
        <path class="cls-2" d="M521.82,51.89c.96-.13,2.17-.27,3.65-.43,1.47-.16,3.07-.3,4.8-.43,1.73-.13,3.5-.24,5.33-.34s3.6-.14,5.33-.14c12.09,0,21.27,3.02,27.54,9.07,6.27,6.04,9.4,15.05,9.4,27.01s-3.2,21.06-9.59,26.72c-6.4,5.66-15.87,8.49-28.4,8.49-3.2,0-6.28-.14-9.26-.43s-5.9-.62-8.78-1.01V51.89ZM538.8,106.78c.45.06.96.1,1.54.1h1.82c2.5,0,4.85-.3,7.05-.91,2.21-.61,4.11-1.68,5.71-3.21,1.6-1.54,2.86-3.61,3.79-6.24.93-2.62,1.39-5.98,1.39-10.08s-.48-7.39-1.44-10.08c-.96-2.69-2.22-4.81-3.79-6.38-1.57-1.57-3.41-2.69-5.52-3.36-2.11-.67-4.32-1.01-6.62-1.01-1.28,0-2.21.02-2.78.05-.58.03-.96.05-1.15.05v41.07Z"/>
        <path class="cls-2" d="M601.84,51.8c1.66-.19,3.21-.35,4.65-.48,1.44-.13,2.89-.19,4.37-.19,1.21,0,2.54.06,3.98.19,1.44.13,3.09.29,4.94.48l21.21,68.61c-3.65.58-6.85.86-9.6.86-1.28,0-2.56-.06-3.84-.19-1.28-.13-2.66-.32-4.13-.58l-3.65-13.34c-1.79.51-3.5.9-5.13,1.15-1.63.26-3.25.38-4.84.38-1.47,0-2.97-.11-4.51-.34-1.54-.22-3.14-.56-4.8-1.01l-3.55,13.14c-1.47.25-2.82.45-4.03.58-1.22.13-2.4.19-3.55.19s-2.48-.08-3.98-.24c-1.5-.16-3.18-.4-5.04-.72l21.49-68.51ZM610.38,69.84l-6.43,24.66c1.09.32,2.11.58,3.07.77.96.19,1.95.29,2.97.29,1.09,0,2.16-.08,3.21-.24,1.05-.16,2.16-.4,3.31-.72l-6.14-24.76Z"/>
        <path class="cls-2" d="M654.14,95.94c-1.66-3.45-3.41-7.05-5.23-10.79-1.82-3.74-3.65-7.48-5.47-11.23s-3.63-7.48-5.42-11.23c-1.79-3.74-3.52-7.34-5.18-10.79,1.09-.19,2.56-.37,4.41-.53,1.85-.16,3.61-.24,5.28-.24,1.34,0,2.83.08,4.46.24,1.63.16,3.05.34,4.27.53l11.8,26.67,11.32-26.67c1.47-.25,3.01-.45,4.61-.58,1.6-.13,3.23-.19,4.89-.19,1.09,0,2.49.08,4.22.24,1.73.16,3.2.34,4.41.53l-21.4,44.04v24.47c-3.39.58-6.21.86-8.44.86-2.37,0-5.21-.29-8.54-.86v-24.47Z"/>
      </g>
      <g>
        <path class="cls-2" d="M28.41,109.28c-3.8-5.28-6.1-11.72-6.1-18.72,0-17.77,14.41-32.18,32.18-32.18s32.18,14.41,32.18,32.18c0,2.32-.27,4.57-.74,6.75l14.29,7.16c5.9-7.06,14.67-11.65,24.59-11.65,5.5,0,10.61,1.51,15.14,3.95l18.32-20.51c-3.42-5.11-5.43-11.26-5.43-17.87,0-17.77,14.41-32.18,32.18-32.18,14.14,0,26.02,9.18,30.34,21.86l11.68-.87v-18.48c0-4.84-3.72-8.87-8.55-9.25L19.06.03c-5.4-.43-10.01,3.84-10.01,9.25v116.68L0,143.19l4.64-5.4,23.77-28.5Z"/>
        <path class="cls-2" d="M216.63,64.09c-2.7,15.04-15.79,26.47-31.6,26.47-5.31,0-10.25-1.41-14.67-3.69l-18.53,20.74c3.24,5.02,5.17,10.97,5.17,17.39,0,17.77-14.41,32.18-32.18,32.18s-32.18-14.41-32.18-32.18c0-2.07.24-4.08.61-6.04l-14.62-7.32c-5.9,6.75-14.47,11.1-24.14,11.1-4.93,0-9.54-1.2-13.72-3.18l-31.72,38.04v8.6c0,5.41,4.61,9.68,10.01,9.25l199.43-19.43c4.83-.38,8.55-4.41,8.55-9.25v-78.93l6.37-5-16.78,1.25Z"/>
        <path class="cls-3" d="M55.59,108.67c9.52,0,17.24-7.72,17.24-17.24s-7.72-17.24-17.24-17.24-17.24,7.72-17.24,17.24,7.72,17.24,17.24,17.24Z"/>
        <path class="cls-4" d="M108.69,125.87c0,9.52,7.72,17.24,17.24,17.24s17.24-7.72,17.24-17.24-7.72-17.24-17.24-17.24-17.24,7.72-17.24,17.24Z"/>
        <path class="cls-1" d="M186.13,76.49c9.52,0,17.24-7.72,17.24-17.24s-7.72-17.24-17.24-17.24-17.24,7.72-17.24,17.24,7.72,17.24,17.24,17.24Z"/>
      </g>
    </g>
  </g>
</svg>